<svg id="Layer_1" data-name="Layer 1" xmlns="http://www.w3.org/2000/svg" viewBox="0 0 383.02 122.96"><defs><style>.cls-1{fill:#db3932;}.cls-2{fill:#fff;}.cls-3{fill:#db3a33;}.cls-4{fill:#db3b33;}.cls-5{fill:#db3c33;}.cls-6{fill:#db3d34;}.cls-7{fill:#db3e34;}.cls-8{fill:#db3f35;}.cls-9{fill:#db4035;}.cls-10{fill:#dc4136;}.cls-11{fill:#dc4135;}.cls-12{fill:#dc4236;}.cls-13{fill:#dc4336;}.cls-14{fill:#dc4537;}.cls-15{fill:#dc4638;}.cls-16{fill:#dc4437;}.cls-17{fill:#dc4738;}.cls-18{fill:#dc4438;}.cls-19{fill:#dd513e;}.cls-20{fill:#df5a43;}.cls-21{fill:#de5340;}.cls-22{fill:#de5641;}.cls-23{fill:#de5441;}.cls-24{fill:#dd4a3b;}.cls-25{fill:#df5a44;}.cls-26{fill:#df5a45;}.cls-27{fill:#554f4f;}.cls-28{fill:#676362;}.cls-29{fill:#555352;}.cls-30{fill:#5c5957;}.cls-31{fill:#424140;}.cls-32{fill:#6b6968;}.cls-33{fill:#5d5a59;}.cls-34{fill:#3c3838;}.cls-35{fill:#666463;}.cls-36{fill:#555252;}.cls-37{fill:#676564;}.cls-38{fill:#5d5857;}.cls-39{fill:#5a5858;}.cls-40{fill:#4c4847;}.cls-41{fill:#4b4747;}.cls-42{fill:#484746;}.cls-43{fill:#837f7f;}.cls-44{fill:#585655;}.cls-45{fill:#737171;}.cls-46{fill:#6a6868;}.cls-47{fill:#686463;}.cls-48{fill:#72706f;}.cls-49{fill:#9d342c;}.cls-50{fill:#4e4b4b;}.cls-51{fill:#2b2726;}.cls-52{fill:#615d5d;}.cls-53{fill:#333232;}.cls-54{fill:#4e4c4c;}.cls-55{fill:#403f3f;}.cls-56{fill:#636160;}.cls-57{fill:#464342;}.cls-58{fill:#6e6c6b;}.cls-59{fill:#5c5958;}.cls-60{fill:#3e3634;}.cls-61{fill:#5d4844;}.cls-62{fill:#838180;}.cls-63{fill:#585555;}.cls-64{fill:#605e5e;}.cls-65{fill:#6e6d6c;}.cls-66{fill:#464444;}.cls-67{fill:#3f3635;}.cls-68{fill:#3a3737;}.cls-69{fill:#545252;}.cls-70{fill:#484646;}.cls-71{fill:#2a2220;}.cls-72{fill:#3a3030;}.cls-73{fill:#3c3938;}.cls-74{fill:#3b3838;}.cls-75{fill:#5b5858;}.cls-76{fill:#4c4949;}.cls-77{fill:#54504f;}.cls-78{fill:#353332;}.cls-79{fill:#e26f56;}.cls-80{fill:#786160;}.cls-81{fill:#514440;}.cls-82{fill:#701e1b;}.cls-83{fill:#972b27;}.cls-84{fill:#7f4c42;}.cls-85{fill:#6e8483;}.cls-86{fill:#5d6666;}.cls-87{fill:#4b3332;}.cls-88{fill:#812420;}.cls-89{fill:#692320;}.cls-90{fill:#61403a;}.cls-91{fill:#834438;}.cls-92{fill:#76c4cc;}.cls-93{fill:#009392;}.cls-94{fill:#58595b;}</style></defs><title>bpk-logo</title><path class="cls-1" d="M127.44,235.59a.57.57,0,0,1-.14.92c-.07.05-.16.07-.14.17a.62.62,0,0,1-.5.78c-.2,0-.15.24-.17.4s.13.28.29.29a.55.55,0,0,1,.57.64c0,.34.23.48.46.64s.61.34.67.79-.08.55-.44.6c-.15,0-.38-.07-.41.19a.39.39,0,0,0,.34.46c.55.06.74.46.91.9s.31.38.61.21a1.63,1.63,0,0,1,.43-.18c.22,0,.45,0,.4.31s.15.48.45.55c.14,0,.35,0,.33.26a.43.43,0,0,1-.23.43,2,2,0,0,1-1.4.28,4,4,0,0,0-.78-.08,1.46,1.46,0,0,0-1.6,1.45c0,.59,0,1.18,0,1.77a1.35,1.35,0,0,1-1.39,1.4c-.56,0-1,.11-1.14.72a.87.87,0,0,1-.39.46c-.46.3-.5.63,0,1s.43.54.23,1a13.87,13.87,0,0,0-.91,2.89.85.85,0,0,1-.52.71.72.72,0,0,0-.31.2,1,1,0,0,1-1.16.31.84.84,0,0,0-.72.16c-.3.21-.63.3-.91-.16a3.57,3.57,0,0,0-2.82-1.69s-.08,0-.1,0c-.62-.48-1.13-.25-1.63.22a.43.43,0,0,1-.34.09,2.44,2.44,0,0,0-1.51.11.64.64,0,0,1-.85-.47c-.26-.77-.9-.74-1.51-.77a.71.71,0,0,0-.21,0,3.37,3.37,0,0,1-2.33-.32c-.16-.05-.15-.18-.16-.3a5.07,5.07,0,0,0-.45-2c-.18-.31.09-.73,0-1.11-.2-.58-.26-.64-.83-.5-.39.1-.75.16-.79-.45a1.26,1.26,0,0,0-.51-1,.59.59,0,0,1-.25-.6,5.09,5.09,0,0,0-.1-2.39,3.79,3.79,0,0,1,.65-3,2.61,2.61,0,0,0,.28-.77c.14,0,.19.11.28.19.24.34.23.78.55,1.1a4.2,4.2,0,0,0,1.2.9c.25.1.36.36.58.5l.13.06c.39.05.78,0,1.16,0a2.54,2.54,0,0,0,.47.07,1.88,1.88,0,0,0,.71,0,1.82,1.82,0,0,0,1.15-.56,2.42,2.42,0,0,1,2-.64,6,6,0,0,1,.85,0,4.14,4.14,0,0,0,2.51-.11c.23,0,.49,0,.69-.14a2.75,2.75,0,0,0,.26-.22c.14-.1.15-.27.22-.41a2.64,2.64,0,0,1,.53-.62.62.62,0,0,0,.2-.95.61.61,0,0,1-.08-.3c0-.35-.19-.72.1-1a1.64,1.64,0,0,1,.45-.42A7.92,7.92,0,0,0,121.8,237a4.22,4.22,0,0,1,1.89-1.63,1.43,1.43,0,0,0,.65,0c.15,0,.3,0,.45,0l.21-.06a1.35,1.35,0,0,1,.53,0,3,3,0,0,0,.5.1l.15,0c.17.05.34.05.51.09S127.23,235.38,127.44,235.59Z" transform="translate(-66.16 -188.52)"/><path class="cls-1" d="M84.1,240.36c0-.24-.08-.47,0-.71s.21-.36.47-.32.28.23.22.43a.36.36,0,0,0,.2.48,1.34,1.34,0,0,1,.71.9.66.66,0,0,0,.29.48,4.51,4.51,0,0,1,1.59,1.57,9.62,9.62,0,0,0,1.72,1.65c.3.24.6.11.9,0a1.67,1.67,0,0,1,1.69.77c.11.27-.13.41-.36.44a.91.91,0,0,0-.63.26c-.45.42-.48.4,0,.72a.61.61,0,0,1,.24.55c0,.48.27.67.74.69,1.34.06,1.85.67,1.69,2-.09.65,0,.77.71.78a.7.7,0,0,1,.64.38.74.74,0,0,0,.78.39.55.55,0,0,1,.63.38,5.46,5.46,0,0,0,1,1.35.85.85,0,0,1,.18,1.16,1.94,1.94,0,0,0-.11,1.44,13.53,13.53,0,0,1,.38,3,3,3,0,0,1-.22,1.17c-.23.51-.45.56-.88.17-.21-.18-.43-.35-.65-.52a.55.55,0,0,0-.18-.06c-.13.28.25.66-.11.82s-.37-.3-.59-.43c-.07.46-.32.63-.46.32s0-.39-.21-.52c0,0-.06,0-.07.05-.13.21.05.65-.27.65a1.18,1.18,0,0,1-.9-.71,10.53,10.53,0,0,0-2.11-2.31,1,1,0,0,0-.77-.23,2.45,2.45,0,0,1-2.2-1.62,1.63,1.63,0,0,0-.88-1.1A2.67,2.67,0,0,1,86,253.27a1.58,1.58,0,0,0-1.16-1.13.59.59,0,0,1-.5-.63,2.36,2.36,0,0,0-.81-1.88c-.11-.08-.25-.25-.23-.33.25-.76-.56-1.09-.67-1.71s-.85-.87-1.2-1.39a8.11,8.11,0,0,0-1.64-1.77.31.31,0,0,1-.12-.23c.09-.81-.45-1.49-.44-2.29a1.09,1.09,0,0,0-.75-1,5.76,5.76,0,0,1-1.56-1,1,1,0,0,1-.25-.26c-.32-.6-.37-1.38-1.2-1.59.08-.72-.6-1.06-.81-1.63a1.18,1.18,0,0,0-1.09-.69,1.27,1.27,0,0,1-1.12-.76c-.29-.65-.9-1-1.34-1.5-.29-.33-.6-.63-.91-.93a.47.47,0,0,1-.1-.44c.11-1,.74-1.33,1.59-.83a1.06,1.06,0,0,1,.2.17,1.87,1.87,0,0,0,2.14.58,12.21,12.21,0,0,1,2.39.14c.51,0,.82.88.66,1.51,0,.1-.12.23-.08.29a3.24,3.24,0,0,1,.57,1.55c0,.19.32.15.5.14a1.14,1.14,0,0,1,1.07.39A5.71,5.71,0,0,0,81,237.14a1.44,1.44,0,0,1,.76.92,5.28,5.28,0,0,0,.28.79c.09.2.13.54.45.11.19-.26.46,0,.55.23a5.13,5.13,0,0,0,.52.84A.58.58,0,0,0,84.1,240.36Z" transform="translate(-66.16 -188.52)"/><path class="cls-1" d="M184.26,266.21a1.24,1.24,0,0,0-1.18-.33c-1.24.24-1.46,0-1.44-1.27a1.42,1.42,0,0,1,.56-1.24c-.75-.17-.9-.71-.92-1.33,0-.37-.09-.65-.53-.69a.88.88,0,0,1-.6-.46,3.54,3.54,0,0,1-.69-1.62.65.65,0,0,0-.58-.62c-.2,0-.4-.12-.6-.15a7.76,7.76,0,0,1-3-1.11,6,6,0,0,0-2.47-.76,4,4,0,0,1-2-.91,5.19,5.19,0,0,0-3-1.05c-.31,0-.5.12-.54.49a.72.72,0,0,1-.75.72c-.45,0-.59-.39-.65-.76-.28-1.74-.27-1.74-2-2-.15,0-.34,0-.39-.2s.07-.29.18-.41a.81.81,0,0,1,.7-.29,8.72,8.72,0,0,1,.88.08,3.58,3.58,0,0,0,2.38-.59c.2-.11.4-.3.29-.55s-.38-.19-.61-.17a.67.67,0,0,0-.29.1,1.88,1.88,0,0,1-2.16,0,2.7,2.7,0,0,1-1.73-1.4.33.33,0,0,0-.31-.23c-.15,0-.31,0-.47,0s-.62.21-.78-.06.23-.41.38-.61a.93.93,0,0,0,.08-.71c0-.34.08-.53.45-.54.17,0,.34-.06.51-.07a1,1,0,0,0,1-.64c.11-.28.28-.51.67-.32a.58.58,0,0,0,.51,0,1.13,1.13,0,0,1,1.35.14,6,6,0,0,0,.75.48.88.88,0,0,0,1.1-.11c.39-.35.65-.27.79.24a6.9,6.9,0,0,1,.27,2.22,9.35,9.35,0,0,0,.05,2c.09.65.31.75.82.36.29-.22.49-.14.61.15s.21.63.31.94c.22.67.43.78,1.09.49a5,5,0,0,0,1.85-1.32,3.64,3.64,0,0,1,1.45-1.15,6.42,6.42,0,0,0,1.52-1.09,6.63,6.63,0,0,1,1.26-.85,2,2,0,0,1,1.76,0,21.27,21.27,0,0,1,3.53,1.53.86.86,0,0,0,.67,0l1.07-.23c.78-.17,1.06,0,1,.83,0,1.53-.09,3.06-.15,4.6s-.13,3-.23,4.48C185.94,262.22,184.75,266.66,184.26,266.21Z" transform="translate(-66.16 -188.52)"/><path class="cls-2" d="M108.32,243.37a3.58,3.58,0,0,1-1.55-1.25c-.21-.25,0-.64-.33-.83-.11-.21,0-.33.17-.42a.43.43,0,0,1,.54.15c.29,0,.32.29.49.43a1.16,1.16,0,0,0,.45.12,2.9,2.9,0,0,1,.87.2l.51.31c.14.07.29.12.44.18l.52.18c.26,0,.48.27.77.16.09-.17,0-.3-.09-.44a1.09,1.09,0,0,0-.07-.4l-.11-.33a.56.56,0,0,1,0-.65v-.18a.82.82,0,0,0,.33-.31l.08-.07c.18-.12.21-.31.28-.49s.1-.39.26-.53c.18-.52.63-.62,1.1-.68.26-.06.56,0,.77-.21h.1c.24,0,.46-.11.7-.09,1.2-.4,1.7-1.49,2.35-2.43a.67.67,0,0,0,.3-.3c.48-.27.63-.8,1-1.19A1.61,1.61,0,0,1,119,234l.19-.1a.6.6,0,0,0,.47-.12c.29.09.22-.16.28-.29,0-.52.31-.35.57-.33l.17.11a.7.7,0,0,0,.94,0v-.11c.13-.15,0-.29,0-.44s0-.31.11-.44.35-.28.49-.47c.16,0,.3-.16.46-.21h0c.2-.08.2-.3.33-.43V231a1,1,0,0,1,.21-.44l.32-.54c.33-.18.52-.52.83-.72l.11-.22c.32-.16,0-.57.3-.74s.39.05.53.21a.46.46,0,0,0,.56.31c.09-.26-.1-.57.13-.82s.39.17.61.13a2.48,2.48,0,0,1-.1.39,1.18,1.18,0,0,0,0,.46l.1.13c0,.46.32.37.6.3.66-.12.24.38.34.58v.22c-.07.18-.13.36.09.49.07.12.15.14.23,0a1.49,1.49,0,0,1,.45-.19l.17.05a.45.45,0,0,1,0,.52c0,.19-.21.57.3.47h0c.08-.16.25-.19.4-.24s.3.05.46,0c.17.28.56.37.61.74.12.09.33,0,.4.2h.12c.21.2.5,0,.73.16a.37.37,0,0,1,.11.28,2,2,0,0,1-.75.73,1,1,0,0,1-.55.19l-.18.1a1.64,1.64,0,0,1-.54,0,1,1,0,0,0-.66-.12c-.26.21,0,.46,0,.69l.13.1a2,2,0,0,0,.31.41c.13.06.22.22.39.21.37,0,.28.29.22.52a.5.5,0,0,1-.61-.1,1.62,1.62,0,0,0-.62.06.43.43,0,0,1-.46-.07c-.14,0-.18-.19-.24-.3a.44.44,0,0,0-.59,0l.11.21c-.21.24-.48.11-.72.12-.18-.18-.45,0-.64-.14h0c-.13-.11-.31,0-.45-.09a.74.74,0,0,0-.72,0s0,0-.06.05a.86.86,0,0,0-.72.06,1.42,1.42,0,0,1-.5,0,7,7,0,0,0-2.08,2,8.33,8.33,0,0,1-1.66,1.47c-.45.35-.19.75-.09,1.14a.88.88,0,0,1-.27,1.38c-.19.12-.25.35-.44.47s-.06.34-.23.44l-.21.21c-.24.17-.54.08-.8.18a3.87,3.87,0,0,1-2.47.14,1.41,1.41,0,0,0-1,0,2.24,2.24,0,0,0-2,.79,1.42,1.42,0,0,1-1,.38c-.24.09-.5,0-.74.07a.33.33,0,0,1-.36-.09c-.46-.14-1,0-1.42-.1h0C108.68,243.68,108.63,243.38,108.32,243.37Z" transform="translate(-66.16 -188.52)"/><path class="cls-1" d="M136.19,252.78l-.77.07c-.95.08-1.19.41-1,1.34a3.84,3.84,0,0,1,0,2.65.69.69,0,0,0,.07.78c.25.32,0,.64-.15.91s-.21.49.1.73.33.68-.2.78c-.75.13-1.51.19-2.27.27-.45.05-.32-.27-.26-.48a18.47,18.47,0,0,1,.63-2c.38-.93-.14-1.67-.44-2.46-.09-.25-.38-.32-.67-.28-.49.06-.78-.12-.73-.66a1.09,1.09,0,0,0-.31-.76c-.32-.43-.16-.74.16-1a1,1,0,0,0,.39-.69.87.87,0,0,1,.35-.65,2.5,2.5,0,0,0,.75-2,2.14,2.14,0,0,1,.27-1.1c.15-.24.3-.42.5,0,0,.08.08.27.26.15s.19-.18.09-.35c-.28-.46-.18-1-.43-1.51a.54.54,0,0,1,.09-.45c.42-.58.75-1.21,1.13-1.82.16-.26.35-.53.79-.27s.78-.23.78-.63c0-.23.13-.37.28-.38.37,0,.68-.21,1-.26s.54-.07.68.3a.55.55,0,0,0,.77.23c.66-.29,1.23.1,1.81.27a3.11,3.11,0,0,0,1.25.18c.74-.09,1.49-.09,2.24-.13.14,0,.32,0,.4-.05a5.35,5.35,0,0,0,1.71-1.83.59.59,0,0,1,.76-.36.56.56,0,0,1,.49.64,1.89,1.89,0,0,1-1,1.6c-.2.1-.42.19-.46.45-.07.53-.48.63-.91.78-1.53.52-3.06,0-4.59.09a3.56,3.56,0,0,0-1.49.1h-.05c-.64-.31-1.24,0-1.86.12a.85.85,0,0,1-.44-.11,1.73,1.73,0,0,0-1.36-.09,1.2,1.2,0,0,0-.82,1.43,10.24,10.24,0,0,1,.09,1.36c0,.4-.11.83.57.88.36,0,.46.56.79.78a1,1,0,0,0,1.52-.48c.24-.69.38-.77,1.1-.61a1.72,1.72,0,0,0,1.07-.17.62.62,0,0,1,.82.08c.31.3.68,0,1-.22a5.35,5.35,0,0,0,.47-.48.69.69,0,0,1,.89-.17,1,1,0,0,1,.31,1.08c-.07.13-.16.23-.33.18s-.27-.06-.41-.09a1.6,1.6,0,0,0-2,.89,1.37,1.37,0,0,1-.94.76,6.36,6.36,0,0,0-1.43.71c-.29.16-.36.29,0,.5a6.38,6.38,0,0,1,1.14.89,2.23,2.23,0,0,1,.47.78.38.38,0,0,0,0,.1,3.3,3.3,0,0,1,.68,1.89c.1.57.63.84,1.06,1.16.18.14.49.23.36.55s-.17.73-.65.68a1.28,1.28,0,0,0-1.51.87.55.55,0,0,1-.76.26.65.65,0,0,1-.48-.58,2.84,2.84,0,0,0-1.35-2.18c-.16-.1-.29-.25-.45-.35a.47.47,0,0,1-.09-.8c.27-.29.43-.53.19-.94S136.22,253.11,136.19,252.78Z" transform="translate(-66.16 -188.52)"/><path class="cls-1" d="M119.62,268.43c-.83-.81-1.93-.74-2.8-1.24a2.13,2.13,0,0,0-1.57-.15,5.88,5.88,0,0,1-3.06,0,1.91,1.91,0,0,0-.62-.1,7.48,7.48,0,0,1-3.46-.92,3.78,3.78,0,0,0-2.81-.33,4.15,4.15,0,0,1-2.42,0,12.42,12.42,0,0,0-3-.47,3.19,3.19,0,0,1-.62-.08.71.71,0,0,1-.64-.8c0-.53-.14-.71-.67-.62a5.74,5.74,0,0,0-1.88.35c-.19.1-.44.15-.55-.1s.14-.31.28-.44a1.26,1.26,0,0,1,.53-.29c.33-.12.61-.25.53-.69,0-.16.1-.28.22-.39a1.61,1.61,0,0,0,.43-.69c.25-.61.38-.65,1-.36a1.61,1.61,0,0,0,.83.3,1.47,1.47,0,0,0,.73-.21,1,1,0,0,1,1.49.25.69.69,0,0,0,.69.33c.21,0,.42,0,.63,0a1.42,1.42,0,0,1,1.6.91c.4.88.55.92,1.49.78a4.55,4.55,0,0,1,2,.06,1.34,1.34,0,0,0,1.58-.84c.29-.71.75-.82,1.22-.22a1.87,1.87,0,0,0,1.45.66,3.78,3.78,0,0,0,.47.06,1.78,1.78,0,0,1,1.81,1,2.87,2.87,0,0,0,3.26,1.09c.73-.28,1.1-.05,1.19.72a4.11,4.11,0,0,1,.07.78,1.07,1.07,0,0,0,.43.95C119.6,267.88,119.64,268.05,119.62,268.43Z" transform="translate(-66.16 -188.52)"/><path class="cls-1" d="M142.52,271.68a1.94,1.94,0,0,1,1.35-1.89,7.48,7.48,0,0,0,2.11-1.2c.23-.17.23-.5.54-.66a3.61,3.61,0,0,1,2.07-.31c.45.05.9.06,1.35.08a1.25,1.25,0,0,0,1.36-.54c0-.1.18-.16.27-.24a.38.38,0,0,1,.44,0c.2.1.09.29,0,.42a1.87,1.87,0,0,1-1.42,1.07,1.77,1.77,0,0,0-1,.46.78.78,0,0,1-.57.22,4,4,0,0,0-2.46,1.21,19.74,19.74,0,0,0-2.18,1.91.6.6,0,0,1-.66.17,1.09,1.09,0,0,0-.67,0c-.57.19-.61.16-.61-.46Z" transform="translate(-66.16 -188.52)"/><path class="cls-1" d="M153.88,244.63a2.77,2.77,0,0,1,.18,1.16,1.87,1.87,0,0,0,.2,1.15.52.52,0,0,1-.07.65c-.15.11-.35-.13-.51-.27a1.35,1.35,0,0,1-.57-1.36,1.52,1.52,0,0,0-.73-1.69c-.15-.1-.22-.25-.07-.32.62-.29.2-.69.06-1s-.3-.44-.12-.77c.08-.15,0-.4,0-.61a1.42,1.42,0,0,1,1.14-1.49c.25-.05.27,0,.24.24a1,1,0,0,0-.06.4,2.36,2.36,0,0,1-.27,2.21c-.07.09-.17.37,0,.46s.24-.2.35-.3a4.53,4.53,0,0,0,.75-1.31.54.54,0,0,1,.82-.13c.3.22.2.57,0,.84a1,1,0,0,1-.48.38.27.27,0,0,0-.12.46c.3.37.52.84,1,1,.17,0,.29.13.31.31s.1.42-.06.54-.44,0-.65,0-.41-.35-.68-.46A1.07,1.07,0,0,0,153.88,244.63Z" transform="translate(-66.16 -188.52)"/><path class="cls-1" d="M160.64,255.17c-.6,0-1.06-.38-1.62-.33-.1,0-.14-.08-.17-.17-.18-.54-.43-.72-.93-.52a1.58,1.58,0,0,1-1.74-.15.47.47,0,0,0-.58.06,1,1,0,0,1-1.21.17.61.61,0,0,0-.76.15.49.49,0,0,1-.56.17c-.17-.07-.11-.24-.13-.37a.42.42,0,0,1,.3-.49,3,3,0,0,0,1.13-.56,2.4,2.4,0,0,1,1.73,0c.5.1.9.15,1.17-.41.17-.33.47-.09.5.08.12.59.57.57,1,.54a2.57,2.57,0,0,1,2,.79.7.7,0,0,1,.24.73C160.94,255.09,160.86,255.23,160.64,255.17Z" transform="translate(-66.16 -188.52)"/><path class="cls-3" d="M134.49,266.9c.07,0,.17,0,.2,0,.59.59,1.54.11,2.12.76a.59.59,0,0,0,.77,0,1.35,1.35,0,0,1,.76-.34c.36-.11.6-.09.79.24s.42.23.62.11a2.35,2.35,0,0,0,1.1-1c.08-.19.19-.24.35-.2s.2.24.15.39a1.83,1.83,0,0,1-1.26,1.32,3,3,0,0,0-1.11.41.73.73,0,0,1-.92-.09.86.86,0,0,0-1.1-.11,1.52,1.52,0,0,1-.92.07,7.32,7.32,0,0,0-1.4-.09,1.54,1.54,0,0,0-.83.22.38.38,0,0,1-.53,0c-.14-.16,0-.33.07-.48a8.63,8.63,0,0,0,.51-.82A.56.56,0,0,1,134.49,266.9Z" transform="translate(-66.16 -188.52)"/><path class="cls-3" d="M126.38,267.62a1.63,1.63,0,0,1,1.14.22s.06.05.09.05c.34,0,.82.22,1-.11s-.31-.5-.61-.64-.46-.27-.41-.63.23-.27.41-.31.48.1.58.38a.66.66,0,0,0,.94.46,1.85,1.85,0,0,1,.62,0,1,1,0,0,1,.85,1.63c-.17.27-.43.16-.65.11a11.16,11.16,0,0,0-1.1-.29,2.73,2.73,0,0,0-1.77.24,1.85,1.85,0,0,1-.76.09,3.21,3.21,0,0,0-1.23.16.43.43,0,0,1-.48-.11c-.12-.13.08-.23.13-.35C125.34,267.88,125.7,267.47,126.38,267.62Z" transform="translate(-66.16 -188.52)"/><path class="cls-3" d="M99.59,254a.47.47,0,0,1-.49,0,6,6,0,0,0-1.15-.6.88.88,0,0,1-.61-.83.7.7,0,0,0-.66-.73,5.62,5.62,0,0,1-.71-.16c-.41-.11-.52-.43-.24-.75a.75.75,0,0,0,.26-.52c0-.36.26-.45.55-.23s.43.35.71,0,.54,0,.61.44a4.1,4.1,0,0,0,.3,1.09.77.77,0,0,0,.8.52c.68,0,.78.17.45.77C99.18,253.31,99.47,253.6,99.59,254Z" transform="translate(-66.16 -188.52)"/><path class="cls-3" d="M171,260.11a1.86,1.86,0,0,1-.35,1.41.42.42,0,0,0-.1.28c0,.54-.2.78-.72.78-.2,0-.26.08-.29.27s-.16.4-.42.36-.29-.24-.28-.47,0-.63,0-.94,0-.82.46-1.08.31-.46,0-.67a.37.37,0,0,1-.14-.45c.06-.22.26-.14.4-.14a.73.73,0,0,0,.67-.32.41.41,0,0,1,.47-.23c.25.06.26.27.28.45S171,259.82,171,260.11Z" transform="translate(-66.16 -188.52)"/><path class="cls-3" d="M131.9,269.79a1,1,0,0,1,1.4.06,3.24,3.24,0,0,0,.89.5c.34.12.67.22.74.68,0,.25.34.3.59.35s.46.06.38.41-.2.35-.49.24a.57.57,0,0,0-.62.12c-.36.33-.65.11-.77-.23-.26-.7-1-.85-1.44-1.25-.15-.12-.38,0-.54.09a1,1,0,0,1-.75.12.58.58,0,0,1-.53-.5c-.07-.29.2-.31.37-.41a2,2,0,0,1,.33-.15C131.6,269.71,131.75,269.82,131.9,269.79Z" transform="translate(-66.16 -188.52)"/><path class="cls-3" d="M181.08,264.57a1.28,1.28,0,0,1-.26,1c-.33.32-.8.46-1.18.76-.21.17-.74,0-1.12.21-.11.07-.59,0-.46-.41a5.14,5.14,0,0,1,1.9-2.39C180.61,263.2,181.14,263.81,181.08,264.57Z" transform="translate(-66.16 -188.52)"/><path class="cls-3" d="M151.53,254c-.06.3-.08.52.17.66s.19.33.13.51a.39.39,0,0,1-.42.32,1.39,1.39,0,0,0-1.2.47c-.17.17-.24.11-.39-.06-.38-.42-.38-1.07-1-1.37-.2-.11.33-.76.7-.7a2,2,0,0,0,1.42-.29C151.36,253.31,151.58,253.55,151.53,254Z" transform="translate(-66.16 -188.52)"/><path class="cls-4" d="M76.9,243.18c-.2.24-.12.49,0,.78s-.17.37-.44.34a.4.4,0,0,1-.26-.15c-.45-.6-.92-1.18-1.35-1.8-.18-.26,0-.5.22-.67a.62.62,0,0,1,.89.1,8.92,8.92,0,0,0,.9,1.13C76.87,243,76.87,243.07,76.9,243.18Z" transform="translate(-66.16 -188.52)"/><path class="cls-4" d="M124.44,266.69a1,1,0,0,1,.74.3c.26.18.29.39,0,.54a.64.64,0,0,0-.44.69.45.45,0,0,1-.48.5,6.65,6.65,0,0,0-1.17.13c-.13,0-.34.09-.4-.12a.36.36,0,0,1,.23-.46c.31-.14.75-.2.45-.73,0-.08.84-.84,1-.85Z" transform="translate(-66.16 -188.52)"/><path class="cls-4" d="M141.16,250c0-.11.1-.25-.07-.31s-.21.05-.24.2a.2.2,0,0,1-.27.16c-.15,0-.17-.14-.19-.27-.07-.73.35-1.09,1.05-.86a.9.9,0,0,0,.65,0c.31-.12.56-.05.56.29s.58.43.41.83-.6,0-.86.35c-.11.16-.64,0-1,0C141.1,250.29,141.09,250.13,141.16,250Z" transform="translate(-66.16 -188.52)"/><path class="cls-4" d="M120.11,266.83a1.22,1.22,0,0,0,.69-.19,1.25,1.25,0,0,1,1.17.17c.42.24.38.64,0,.89-.21.12-.43.17-.47.48s-.29.21-.48.21-.45,0-.45-.26c0-.41-.29-.55-.58-.69s-.4-.15-.34-.39S119.86,266.72,120.11,266.83Z" transform="translate(-66.16 -188.52)"/><path class="cls-4" d="M102.42,252.46a1.1,1.1,0,0,1,1.06,1.28c0,.14-.09.26-.11.4-.07.31-.22.45-.5.2s-.38-.19-.52.09-.26.17-.44.12-.19-.2-.22-.36c-.06-.49.23-.93.18-1.44C101.84,252.47,102.25,252.56,102.42,252.46Z" transform="translate(-66.16 -188.52)"/><path class="cls-4" d="M161.93,246.64c-.42,0-.74-.28-1.12-.15a.86.86,0,0,0-.5.37c-.22.37-.54.32-.76-.05-.07-.12-.05-.3-.26-.34s-.4.06-.36-.17a.52.52,0,0,1,.47-.42,1.07,1.07,0,0,0,.78-.33.77.77,0,0,1,1.06.11.77.77,0,0,0,.73.4c.18,0,.44,0,.41.25S162.08,246.59,161.93,246.64Z" transform="translate(-66.16 -188.52)"/><path class="cls-3" d="M79.24,248c.28-.05.46.11.53.4a1.34,1.34,0,0,0,.48.77.52.52,0,0,1,.17.52.89.89,0,0,0,0,.56c.31.56-.08.43-.36.38a.79.79,0,0,1-.73-.56,1.45,1.45,0,0,0-.33-.46c-.19-.2-.32-.41-.13-.68a.35.35,0,0,0,0-.39C78.66,248.11,78.72,248,79.24,248Z" transform="translate(-66.16 -188.52)"/><path class="cls-5" d="M115.68,263.37c.24-.1.42.33.74.24s.67-.19,1-.3a.8.8,0,0,1,.5-.05c.17.05.33.14.34.35a.3.3,0,0,1-.29.36,1.06,1.06,0,0,0-.83.52c0,.09-.15.17-.26.09a.68.68,0,0,0-.86,0s-.18,0-.2,0a6,6,0,0,1-.65-1.08C115.11,263.4,115.43,263.41,115.68,263.37Z" transform="translate(-66.16 -188.52)"/><path class="cls-6" d="M145.22,250.38c.48.27,1,0,1.45-.33.11-.09.32-.17.43,0a.92.92,0,0,1,0,.76.23.23,0,0,1-.34.14c-.57-.24-1.06.33-1.63.16-.07,0-.22.19-.32.31a.36.36,0,0,1-.51.07.38.38,0,0,1-.08-.47A.92.92,0,0,1,145.22,250.38Z" transform="translate(-66.16 -188.52)"/><path class="cls-5" d="M71.93,238a1.51,1.51,0,0,1,.84.62,3,3,0,0,0,.85,1,.29.29,0,0,1,.1.45c-.13.16-.3,0-.41-.06a3.8,3.8,0,0,0-1.45-.79.65.65,0,0,1-.42-.8C71.5,238.15,71.73,238.11,71.93,238Z" transform="translate(-66.16 -188.52)"/><path class="cls-7" d="M141.36,257.25l.32.33c.25.25.3.45-.05.7s-.58.58-.22,1.05c.16.22.25.55-.26.54-.28,0-.4.13-.37.42s0,.47-.29.42-.19-.28-.18-.49a1.54,1.54,0,0,1,.46-1.17c.27-.23.22-.53.21-.82A1.06,1.06,0,0,1,141.36,257.25Z" transform="translate(-66.16 -188.52)"/><path class="cls-6" d="M150,266.15a1.16,1.16,0,0,0-1.28.21c-.12.12-.27-.07-.29-.19s-.15-.57.13-.71a3.27,3.27,0,0,1,1.52-.42c.28,0,.62,0,.59.42A.71.71,0,0,1,150,266.15Z" transform="translate(-66.16 -188.52)"/><path class="cls-7" d="M174.33,250.05c-.2,0-.4,0-.47-.25a.39.39,0,0,1,.23-.52c.42-.18.79-.56,1.33-.21.19.12.51,0,.77,0s.21,0,.25.13-.05.19-.14.25-.07.09-.12.09A9.15,9.15,0,0,0,174.33,250.05Z" transform="translate(-66.16 -188.52)"/><path class="cls-6" d="M140.38,258.63c.08.28-.11.54-.15.83s-.3.42-.61.4-.28-.29-.29-.5a.64.64,0,0,1,.17-.57.45.45,0,0,0,.11-.53c-.13-.29,0-.47.28-.54s.41.18.48.41A2,2,0,0,1,140.38,258.63Z" transform="translate(-66.16 -188.52)"/><path class="cls-6" d="M83.21,254.74c-.23,0-.42-.09-.43-.42a.84.84,0,0,0-.45-.82c-.22-.11-.21-.24,0-.4s.11-.09.13-.15.08-.49.41-.42.37.3.42.54a11.45,11.45,0,0,0,.31,1.41C83.64,254.76,83.43,254.74,83.21,254.74Z" transform="translate(-66.16 -188.52)"/><path class="cls-8" d="M173.44,248c-.07-.46.46-.71.41-1.17a.23.23,0,0,1,.16-.09.66.66,0,0,1,.5.48c.06.26.31.54.05.81a2,2,0,0,1-.49.38C173.75,248.57,173.45,248.36,173.44,248Z" transform="translate(-66.16 -188.52)"/><path class="cls-6" d="M145.59,266.64a3.58,3.58,0,0,1,1,.13c.29.06.28.26.1.4a.94.94,0,0,1-.8.3,4,4,0,0,0-1-.06c-.15,0-.33,0-.32-.17s0-.4.21-.48A1.68,1.68,0,0,1,145.59,266.64Z" transform="translate(-66.16 -188.52)"/><path class="cls-9" d="M135.3,261.25a4,4,0,0,1-.42,1.22c-.08.14-.21.27-.38.2s-.16-.27-.1-.4a1.65,1.65,0,0,0,.09-1c0-.37-.08-.86.33-.89S135.2,260.92,135.3,261.25Z" transform="translate(-66.16 -188.52)"/><path class="cls-9" d="M159.16,250.94a4.55,4.55,0,0,0-1.1-.46c-.16,0,.09-.53.36-.54a2.1,2.1,0,0,0,1-.31.2.2,0,0,1,.28.06.16.16,0,0,1,0,.23.79.79,0,0,0-.19.81C159.6,250.88,159.44,251,159.16,250.94Z" transform="translate(-66.16 -188.52)"/><path class="cls-8" d="M162.93,264.69a.6.6,0,0,1-.31.64.77.77,0,0,0-.4.52.34.34,0,0,1-.37.29c-.1,0-.23.05-.27-.08a.54.54,0,0,1,.1-.54,2.58,2.58,0,0,0,.61-1c.05-.17.07-.47.42-.39S162.94,264.47,162.93,264.69Z" transform="translate(-66.16 -188.52)"/><path class="cls-10" d="M155.13,239.61a2.11,2.11,0,0,1-.45,1.16.33.33,0,0,1-.41.1.29.29,0,0,1-.18-.38c.12-.43.27-.85.41-1.28.05-.16.25-.3.34-.26C155.1,239.08,155.07,239.38,155.13,239.61Z" transform="translate(-66.16 -188.52)"/><path class="cls-8" d="M124.38,255.62a3.42,3.42,0,0,1-.84,1.18c-.15.05-.32.09-.43-.06a.28.28,0,0,1,0-.42c.2-.14.16-.32.18-.5,0-.46.34-.6.75-.6C124.3,255.23,124.37,255.38,124.38,255.62Z" transform="translate(-66.16 -188.52)"/><path class="cls-9" d="M154,250c0,.07-.08.21-.12.21-.51,0-1,.42-1.49.22-.15-.05-.28-.14-.19-.28s.25-.64.65-.66a1.63,1.63,0,0,1,1,.31C153.9,249.84,153.91,249.92,154,250Z" transform="translate(-66.16 -188.52)"/><path class="cls-10" d="M167.09,259.19a2.06,2.06,0,0,1-.48,1.36.38.38,0,0,1-.46.14c-.17-.08-.11-.28-.05-.42a2.2,2.2,0,0,0,.36-1.31c0-.15.23-.36.4-.31S167.07,259,167.09,259.19Z" transform="translate(-66.16 -188.52)"/><path class="cls-8" d="M149.72,250.24s0,.09,0,.09c-.41,0-.47.65-1,.58a.94.94,0,0,0-.73.21c-.11.09-.26.14-.37,0a.3.3,0,0,1,0-.42l0,0a2.8,2.8,0,0,1,1.92-.57C149.64,250.14,149.72,250.15,149.72,250.24Z" transform="translate(-66.16 -188.52)"/><path class="cls-11" d="M148.07,236.86a2.57,2.57,0,0,0-.08.4c0,.21-.1.4-.33.38s-.42-.12-.41-.42a.8.8,0,0,0-.12-.45c-.18-.28-.21-.53.14-.67s.6.06.72.39A2,2,0,0,1,148.07,236.86Z" transform="translate(-66.16 -188.52)"/><path class="cls-12" d="M152.18,247.17a.68.68,0,0,1,.09-.29c.07-.12.16-.3.34-.24a.32.32,0,0,1,.27.38.44.44,0,0,0,.32.56c.11,0,.33,0,.29.22s-.21.23-.35.28C152.77,248.18,152.16,247.66,152.18,247.17Z" transform="translate(-66.16 -188.52)"/><path class="cls-9" d="M93.07,244a1.92,1.92,0,0,0,.14.77.33.33,0,0,1-.11.38c-.15.08-.27,0-.34-.16a9.76,9.76,0,0,1-.51-.89c-.13-.28.15-.39.27-.56a.27.27,0,0,1,.36-.1C93.18,243.56,93,243.82,93.07,244Z" transform="translate(-66.16 -188.52)"/><path class="cls-13" d="M106.53,266a1.73,1.73,0,0,1,.87.32.43.43,0,0,1,.14.56c-.09.19-.3.12-.47.09-.4-.08-.67-.41-1-.58-.09,0-.1-.13-.06-.22S106.27,266,106.53,266Z" transform="translate(-66.16 -188.52)"/><path class="cls-10" d="M94.33,243.76c-.21-.06-.28,0-.27.2s-.06.25-.22.23-.27-.08-.29-.25a4.1,4.1,0,0,1-.06-.78c0-.31.21-.42.51-.29a1.46,1.46,0,0,1,.52.5.28.28,0,0,1,.08.33C94.53,243.87,94.42,243.8,94.33,243.76Z" transform="translate(-66.16 -188.52)"/><path class="cls-10" d="M88.69,242.77a.89.89,0,0,1,.76.53,1.57,1.57,0,0,0,.38.66.24.24,0,0,1,0,.37c-.13.12-.3,0-.36-.08A6.44,6.44,0,0,0,88.38,243c-.06,0-.1-.12,0-.18A.33.33,0,0,1,88.69,242.77Z" transform="translate(-66.16 -188.52)"/><path class="cls-14" d="M138.44,260.27h-.08c-.13,0-.27,0-.23-.19.09-.38-.58-.69-.14-1.05.16-.14.47.07.68.15s.21.43.16.68S138.75,260.33,138.44,260.27Z" transform="translate(-66.16 -188.52)"/><path class="cls-15" d="M150.9,234.69a2.28,2.28,0,0,0-.07.82c0,.11,0,.22-.14.24a.21.21,0,0,1-.25-.21c0-.13,0-.29-.16-.34-.52-.18-.22-.48-.09-.72s.21-.3.41-.24S150.86,234.5,150.9,234.69Z" transform="translate(-66.16 -188.52)"/><path class="cls-15" d="M154.1,254.71a1.54,1.54,0,0,1,.39.24c.11.12,0,.21-.1.3a1.53,1.53,0,0,1-.18.18c-.2.21-.38.47-.74.28a.23.23,0,0,1-.11-.31C153.48,255,153.87,255,154.1,254.71Z" transform="translate(-66.16 -188.52)"/><path class="cls-16" d="M93.57,246.55a2.32,2.32,0,0,1,1.32-.43c.16,0,.32,0,.35.22a.29.29,0,0,1-.23.35A2.52,2.52,0,0,1,93.57,246.55Z" transform="translate(-66.16 -188.52)"/><path class="cls-17" d="M93.26,247.43c0-.24,0-.53.34-.51a.47.47,0,0,1,.47.51.48.48,0,0,1-.44.54C93.25,248,93.36,247.62,93.26,247.43Z" transform="translate(-66.16 -188.52)"/><path class="cls-18" d="M181.34,266.26a.53.53,0,0,1,.51.44.47.47,0,0,1-.11.52c-.2.12-.34-.06-.45-.23a2.64,2.64,0,0,0-.21-.29c-.09-.1-.4.08-.31-.21S181,266.2,181.34,266.26Z" transform="translate(-66.16 -188.52)"/><path class="cls-12" d="M128.19,237.89c.12.08.41,0,.48.27,0,.13-.53.63-.65.58a.43.43,0,0,1-.31-.48C127.75,238.05,127.8,237.79,128.19,237.89Z" transform="translate(-66.16 -188.52)"/><path class="cls-16" d="M86.76,241.25c-.34,0-.51,0-.52-.35,0-.51.39-.21.58-.33s.36.05.36.3S86.92,241.23,86.76,241.25Z" transform="translate(-66.16 -188.52)"/><path class="cls-19" d="M78.84,245.12c.3,0,.54.1.57.37a.3.3,0,0,1-.38.32.56.56,0,0,1-.52-.5C78.49,245.09,78.72,245.14,78.84,245.12Z" transform="translate(-66.16 -188.52)"/><path class="cls-20" d="M124.28,254.59c-.14,0-.31-.1-.27-.3a.41.41,0,0,1,.38-.36c.14,0,.36.12.29.26S124.57,254.61,124.28,254.59Z" transform="translate(-66.16 -188.52)"/><path class="cls-21" d="M106.22,249.5a.32.32,0,0,1-.34.31c-.24,0-.3-.14-.28-.34s.06-.34.24-.33A.38.38,0,0,1,106.22,249.5Z" transform="translate(-66.16 -188.52)"/><path class="cls-22" d="M82,252.31c-.21,0-.39,0-.39-.25s.1-.29.29-.27.45.08.46.33S82.12,252.27,82,252.31Z" transform="translate(-66.16 -188.52)"/><path class="cls-23" d="M147.34,239.16c0,.22,0,.32-.23.3s-.29-.09-.29-.31.11-.38.28-.37S147.29,239.05,147.34,239.16Z" transform="translate(-66.16 -188.52)"/><path class="cls-24" d="M81.28,251.51c-.15,0-.32-.08-.33-.31s.22-.24.38-.25a.29.29,0,0,1,.29.3C81.63,251.44,81.5,251.53,81.28,251.51Z" transform="translate(-66.16 -188.52)"/><path class="cls-25" d="M78.3,246.45c-.17,0-.29-.11-.28-.27s.19-.23.35-.23.27,0,.21.19S78.48,246.44,78.3,246.45Z" transform="translate(-66.16 -188.52)"/><path class="cls-26" d="M78.48,247.15c0,.11,0,.26-.2.26s-.3,0-.32-.21a.27.27,0,0,1,.24-.3C78.38,246.88,78.43,247,78.48,247.15Z" transform="translate(-66.16 -188.52)"/><path class="cls-27" d="M127.47,230a.1.1,0,0,1-.09-.14c.18-.37,0-.41-.33-.4v-.06a.29.29,0,0,1,.45,0C127.68,229.62,127.58,229.84,127.47,230Z" transform="translate(-66.16 -188.52)"/><path class="cls-28" d="M131.45,232.56c-.24-.09-.59.2-.73-.21.27.05.58-.13.83.11A.24.24,0,0,1,131.45,232.56Z" transform="translate(-66.16 -188.52)"/><path class="cls-29" d="M124.33,229.31c-.23.29-.4.65-.83.72C123.75,229.75,123.94,229.42,124.33,229.31Z" transform="translate(-66.16 -188.52)"/><path class="cls-30" d="M128.33,231.2l.08-.58c.43.11.19.36.13.58A.14.14,0,0,1,128.33,231.2Z" transform="translate(-66.16 -188.52)"/><path class="cls-31" d="M119,234l-.82.28C118.37,234,118.67,234,119,234Z" transform="translate(-66.16 -188.52)"/><path class="cls-32" d="M127.06,229.44a.07.07,0,0,1,0,.06c-.13.2-.31.16-.47.05a.24.24,0,0,1,0-.39A.46.46,0,0,0,127.06,229.44Z" transform="translate(-66.16 -188.52)"/><path class="cls-33" d="M111.28,242.62c-.34.27-.58-.06-.86-.14,0,0,0,0,0-.07l0,0a1.91,1.91,0,0,1,.7.22A.11.11,0,0,1,111.28,242.62Z" transform="translate(-66.16 -188.52)"/><path class="cls-34" d="M128.33,231.2h.21c0,.17-.13.4.2.41C128.32,231.8,128.32,231.8,128.33,231.2Z" transform="translate(-66.16 -188.52)"/><path class="cls-35" d="M109,241.77l-.94-.13c0-.2.13-.12.23-.1S108.82,241.39,109,241.77Z" transform="translate(-66.16 -188.52)"/><path class="cls-36" d="M111,240.78a1.58,1.58,0,0,0,0,.65C110.6,241.21,110.59,241,111,240.78Z" transform="translate(-66.16 -188.52)"/><path class="cls-37" d="M114.56,238.22c-.23.09-.44.3-.7.09C114.08,238.21,114.29,238,114.56,238.22Z" transform="translate(-66.16 -188.52)"/><path class="cls-38" d="M120.51,233.18c-.2.09-.54-.06-.57.33a.21.21,0,0,1,0-.38A.43.43,0,0,1,120.51,233.18Z" transform="translate(-66.16 -188.52)"/><path class="cls-39" d="M121.62,233.28a.55.55,0,0,1-.94,0A1.14,1.14,0,0,0,121.62,233.28Z" transform="translate(-66.16 -188.52)"/><path class="cls-40" d="M113.76,238.31c-.19.33-.48.27-.77.21C113.22,238.35,113.52,238.45,113.76,238.31Z" transform="translate(-66.16 -188.52)"/><path class="cls-41" d="M124.76,228.39c-.2.19.13.62-.32.7.24-.21-.09-.65.32-.8,0,0,0,.05,0,.07Z" transform="translate(-66.16 -188.52)"/><path class="cls-42" d="M107.15,241a1.14,1.14,0,0,0-.51-.13.1.1,0,0,1-.1-.07C106.81,240.67,107,240.67,107.15,241Z" transform="translate(-66.16 -188.52)"/><path class="cls-43" d="M129.27,234.86c-.19-.07-.47-.08-.31-.41C129.22,234.47,129.23,234.67,129.27,234.86Z" transform="translate(-66.16 -188.52)"/><path class="cls-44" d="M129.56,233.74c.17,0,.36-.06.52.07a.5.5,0,0,1-.64,0A.17.17,0,0,1,129.56,233.74Z" transform="translate(-66.16 -188.52)"/><path class="cls-45" d="M128.72,235.45a.45.45,0,0,1,.55,0c-.15.19-.36.08-.54.09S128.66,235.5,128.72,235.45Z" transform="translate(-66.16 -188.52)"/><path class="cls-46" d="M127.36,235.19c.19-.36.39-.32.59,0Z" transform="translate(-66.16 -188.52)"/><path class="cls-47" d="M130.26,233.71a.8.8,0,0,1,.55-.19A.35.35,0,0,1,130.26,233.71Z" transform="translate(-66.16 -188.52)"/><path class="cls-48" d="M128.72,235.45v.13c-.2.07-.44.35-.54-.1A1.19,1.19,0,0,0,128.72,235.45Z" transform="translate(-66.16 -188.52)"/><path class="cls-49" d="M126.8,235.48c.22-.06.45,0,.67-.08l0,.19c-.27,0-.55.08-.81-.08C126.68,235.44,126.73,235.44,126.8,235.48Z" transform="translate(-66.16 -188.52)"/><path class="cls-50" d="M126,228.05c-.11.26,0,.57-.13.82C125.86,228.6,125.6,228.27,126,228.05Z" transform="translate(-66.16 -188.52)"/><path class="cls-51" d="M124.76,228.39a.17.17,0,0,0,0-.1c.24,0,.49-.11.51.27C125.1,228.52,125,228.28,124.76,228.39Z" transform="translate(-66.16 -188.52)"/><path class="cls-52" d="M126.43,229a.34.34,0,0,1-.05-.46c.05,0,.1,0,.14,0S126.62,228.91,126.43,229Z" transform="translate(-66.16 -188.52)"/><path class="cls-53" d="M123,231.19c0,.22,0,.44-.33.43C122.85,231.55,122.64,231.16,123,231.19Z" transform="translate(-66.16 -188.52)"/><path class="cls-54" d="M128.83,234.35a.54.54,0,0,1,0-.72s0,0,0,.07,0,0,0,0C128.8,233.94,129,234.15,128.83,234.35Z" transform="translate(-66.16 -188.52)"/><path class="cls-55" d="M128.84,233.73a.33.33,0,0,0,0-.1.75.75,0,0,1,.72.11l-.12.08C129.26,233.64,129.05,233.71,128.84,233.73Z" transform="translate(-66.16 -188.52)"/><path class="cls-56" d="M119.66,233.8c-.1.26-.26.31-.47.12C119.32,233.76,119.5,233.82,119.66,233.8Z" transform="translate(-66.16 -188.52)"/><path class="cls-57" d="M129.88,235.59c-.06-.18.08-.44-.22-.52.08-.17.19-.12.26,0S130.08,235.43,129.88,235.59Z" transform="translate(-66.16 -188.52)"/><path class="cls-58" d="M110.42,242.38v.1a.9.9,0,0,1-.55-.17c0-.07.07-.08.12-.1S110.31,242.24,110.42,242.38Z" transform="translate(-66.16 -188.52)"/><path class="cls-59" d="M111.89,239.2c-.07.2-.07.43-.25.58h0C111.6,239.55,111.6,239.3,111.89,239.2Z" transform="translate(-66.16 -188.52)"/><path class="cls-60" d="M111.59,239.79s0,0,0,0c0,.2,0,.42-.29.44Z" transform="translate(-66.16 -188.52)"/><path class="cls-61" d="M106.54,240.82l.1.07a.67.67,0,0,0-.2.4l-.16-.23C106.3,240.9,106.45,240.89,106.54,240.82Z" transform="translate(-66.16 -188.52)"/><path class="cls-62" d="M108.25,241.54l-.23.1a.32.32,0,0,1-.38-.19A.93.93,0,0,1,108.25,241.54Z" transform="translate(-66.16 -188.52)"/><path class="cls-63" d="M121.72,232.29c0,.16-.11.32,0,.48a.15.15,0,0,1-.08.11C121.49,232.65,121.34,232.42,121.72,232.29Z" transform="translate(-66.16 -188.52)"/><path class="cls-64" d="M129.16,231.43l-.43.19c0-.3.24-.26.42-.31,0,0,0,.05,0,.08S129.17,231.43,129.16,231.43Z" transform="translate(-66.16 -188.52)"/><path class="cls-65" d="M123.18,230.57a.62.62,0,0,1-.21.44C123,230.82,122.88,230.61,123.18,230.57Z" transform="translate(-66.16 -188.52)"/><path class="cls-66" d="M127.56,230.75c-.06,0-.16.17-.17.07s-.19-.42.08-.56C127.49,230.42,127.43,230.6,127.56,230.75Z" transform="translate(-66.16 -188.52)"/><path class="cls-67" d="M111.28,242.62l-.16,0c.08-.15,0-.28-.05-.42h.06A.31.31,0,0,1,111.28,242.62Z" transform="translate(-66.16 -188.52)"/><path class="cls-68" d="M126.52,228.58h-.14l.19-.39C126.67,228.33,126.6,228.45,126.52,228.58Z" transform="translate(-66.16 -188.52)"/><path class="cls-69" d="M128.24,230.57a.55.55,0,0,1-.45.19C127.86,230.51,128,230.53,128.24,230.57Z" transform="translate(-66.16 -188.52)"/><path class="cls-70" d="M129.16,231.43v-.12c.16,0,.32-.06.44.09C129.46,231.6,129.3,231.36,129.16,231.43Z" transform="translate(-66.16 -188.52)"/><path class="cls-71" d="M122.67,231.61c-.14.11-.25.27-.46.21A.49.49,0,0,1,122.67,231.61Z" transform="translate(-66.16 -188.52)"/><path class="cls-72" d="M131.45,232.56l.1-.1c.15.1.09.22,0,.33S131.48,232.64,131.45,232.56Z" transform="translate(-66.16 -188.52)"/><path class="cls-73" d="M110,242.21l-.12.1c-.15-.05-.32-.06-.4-.23C109.67,242,109.8,242.2,110,242.21Z" transform="translate(-66.16 -188.52)"/><path class="cls-74" d="M121.61,232.88l.08-.11c0,.14.22.31-.07.4Z" transform="translate(-66.16 -188.52)"/><path class="cls-75" d="M117.21,235.49c0,.23-.06.34-.3.3A.62.62,0,0,1,117.21,235.49Z" transform="translate(-66.16 -188.52)"/><path class="cls-76" d="M130.6,232.34c-.11-.1-.32,0-.4-.2C130.34,232.19,130.62,232,130.6,232.34Z" transform="translate(-66.16 -188.52)"/><path class="cls-77" d="M111.27,240.29c0,.23-.08.36-.33.31A.76.76,0,0,1,111.27,240.29Z" transform="translate(-66.16 -188.52)"/><path class="cls-78" d="M111.13,242.19h-.06c0-.14-.15-.27,0-.42C111.2,241.87,111.14,242,111.13,242.19Z" transform="translate(-66.16 -188.52)"/><path class="cls-79" d="M131.9,269.79c-.14.11-.29.06-.44,0A.26.26,0,0,1,131.9,269.79Z" transform="translate(-66.16 -188.52)"/><path class="cls-80" d="M108.84,243.86a3.78,3.78,0,0,1,1.42.1A3.78,3.78,0,0,1,108.84,243.86Z" transform="translate(-66.16 -188.52)"/><path class="cls-81" d="M119.84,240c-.18-.39-.49-.8.09-1.14C119.58,239.24,119.89,239.65,119.84,240Z" transform="translate(-66.16 -188.52)"/><path class="cls-82" d="M108.32,243.37c.47-.15.35.32.52.5C108.6,243.76,108.56,243.46,108.32,243.37Z" transform="translate(-66.16 -188.52)"/><path class="cls-83" d="M114.45,242.81c.33-.19.66-.29,1,0Z" transform="translate(-66.16 -188.52)"/><path class="cls-84" d="M117.89,242.71a2,2,0,0,1,.8-.18C118.47,242.77,118.18,242.72,117.89,242.71Z" transform="translate(-66.16 -188.52)"/><path class="cls-85" d="M125,235.32a.58.58,0,0,1,.75-.06c0,.05,0,.06-.09,0Z" transform="translate(-66.16 -188.52)"/><path class="cls-86" d="M110.62,244.05c.23-.18.49-.05.74-.07C111.13,244.17,110.87,244,110.62,244.05Z" transform="translate(-66.16 -188.52)"/><path class="cls-87" d="M124.23,235.37c.22-.1.44-.19.66,0l-.59,0S124.24,235.42,124.23,235.37Z" transform="translate(-66.16 -188.52)"/><path class="cls-88" d="M124.23,235.37l.07,0a.52.52,0,0,1-.63,0Z" transform="translate(-66.16 -188.52)"/><path class="cls-89" d="M126.8,235.48l-.17,0c-.17-.07-.39.07-.52-.13A1.61,1.61,0,0,1,126.8,235.48Z" transform="translate(-66.16 -188.52)"/><path class="cls-90" d="M125.61,235.29l.09,0c.14,0,.31,0,.42.12C125.94,235.39,125.76,235.45,125.61,235.29Z" transform="translate(-66.16 -188.52)"/><path class="cls-91" d="M118.9,242.32c.09-.14,0-.37.23-.44C119.08,242,119.15,242.26,118.9,242.32Z" transform="translate(-66.16 -188.52)"/><path class="cls-92" d="M185.76,242.55c.11-3,1.83-2.8,2.37,0,3.2,31.86-16.28,53.25-31.15,61.33-17.1,9.29-44.53,13.48-70.36-7.78-3.89-3.19-16.52-18.05-14.4-23.22,2-4.88,12.91,9,12.91,9s19,14.31,37.66,9.7c2.37-.58,2.75-4.8-2.43-9.09-3.31-2.75-11.42-9.18-7.51-15.57,2.39-3,4.06-3.09,6.22,2.5,2,6.76,13.63,5.39,24.55,18.29C146.92,290.73,183.81,290.06,185.76,242.55Z" transform="translate(-66.16 -188.52)"/><path class="cls-92" d="M110.55,289.77s-2.52-6-3.18-7.63c-1.59-4.21-6.71-4.21-5.58-.62l2.75,7Z" transform="translate(-66.16 -188.52)"/><path class="cls-92" d="M101.82,288s-1.45-3.76-2.81-7.39c-2.07-5.21-8.16-6.16-6.67-1.66l2.32,6Z" transform="translate(-66.16 -188.52)"/><path class="cls-92" d="M92.11,284.33s-2.08-5.11-3.88-8.8S81.81,270,83,274.09c.77,2.71,1.57,4.92,1.57,4.92Z" transform="translate(-66.16 -188.52)"/><path class="cls-93" d="M68.88,257.45c-.11,3-1.82,2.8-2.37,0-3.19-31.86,16.29-53.25,31.15-61.32,17.11-9.29,44.53-13.48,70.37,7.77,3.88,3.19,16.52,18,14.4,23.23-2,4.87-12.91-9-12.91-9s-19-14.31-37.67-9.7c-2.36.58-2.74,4.81,2.43,9.1,3.32,2.74,11.43,9.17,7.51,15.56-2.39,3-4,3.09-6.21-2.5-2-6.76-13.63-5.39-24.55-18.28C107.73,209.27,70.83,209.94,68.88,257.45Z" transform="translate(-66.16 -188.52)"/><path class="cls-93" d="M144.1,210.24s2.52,6,3.17,7.62c1.6,4.21,6.72,4.21,5.58.62l-2.74-6.95Z" transform="translate(-66.16 -188.52)"/><path class="cls-93" d="M152.83,212.05s1.45,3.76,2.81,7.39c2.06,5.21,8.16,6.16,6.66,1.66l-2.31-6Z" transform="translate(-66.16 -188.52)"/><path class="cls-93" d="M162.53,215.67s2.08,5.11,3.89,8.8,6.41,5.52,5.26,1.44c-.76-2.71-1.57-4.92-1.57-4.92Z" transform="translate(-66.16 -188.52)"/><path class="cls-93" d="M215.83,233.38H205.78V210.07h9.62c4.88,0,7.58,2.54,7.58,6a5.36,5.36,0,0,1-4,5.34,5.66,5.66,0,0,1,4.51,5.65C223.52,230.77,220.68,233.38,215.83,233.38Zm-1.1-19.54h-4.27v5.85h4.27c2.21,0,3.48-1,3.48-2.91S216.94,213.84,214.73,213.84Zm.34,9.45h-4.61v6.28h4.71c2.27,0,3.6-1.1,3.6-3.07S217.34,223.29,215.07,223.29Z" transform="translate(-66.16 -188.52)"/><path class="cls-94" d="M235.35,214.58a7.3,7.3,0,0,1,6.11,2.94v-2.64h4.71v18.5h-4.71v-2.71a7.28,7.28,0,0,1-6.14,3c-4.68,0-8.42-3.84-8.42-9.62S230.64,214.58,235.35,214.58Zm1.2,4.11c-2.5,0-4.88,1.87-4.88,5.37s2.38,5.51,4.88,5.51,4.91-1.94,4.91-5.44S239.12,218.69,236.55,218.69Z" transform="translate(-66.16 -188.52)"/><path class="cls-94" d="M256.27,233.38h-4.68v-18.5h4.68v2.87a6.4,6.4,0,0,1,5.67-3.14v4.91h-1.23c-2.78,0-4.44,1.07-4.44,4.64Z" transform="translate(-66.16 -188.52)"/><path class="cls-94" d="M265.42,209.94a2.88,2.88,0,1,1,2.87,2.73A2.74,2.74,0,0,1,265.42,209.94Zm.5,4.94h4.68v18.5h-4.68Z" transform="translate(-66.16 -188.52)"/><path class="cls-94" d="M283.13,233.68c-4.64,0-7.88-2.71-8.08-6.14h4.71c.16,1.4,1.46,2.47,3.33,2.47s2.84-.84,2.84-1.91c0-3.3-10.45-1.2-10.45-8,0-3.07,2.74-5.54,7.31-5.54s7.19,2.43,7.45,6.11h-4.47c-.14-1.44-1.27-2.41-3.11-2.41S280,219,280,220.05c0,3.38,10.26,1.27,10.39,8C290.41,231.27,287.64,233.68,283.13,233.68Z" transform="translate(-66.16 -188.52)"/><path class="cls-94" d="M302.34,214.58a7.3,7.3,0,0,1,6.11,2.94v-2.64h4.71v18.5h-4.71v-2.71a7.27,7.27,0,0,1-6.14,3c-4.68,0-8.42-3.84-8.42-9.62S297.63,214.58,302.34,214.58Zm1.2,4.11c-2.5,0-4.87,1.87-4.87,5.37s2.37,5.51,4.87,5.51,4.91-1.94,4.91-5.44S306.12,218.69,303.54,218.69Z" transform="translate(-66.16 -188.52)"/><path class="cls-94" d="M331.54,223.16c0-3-1.64-4.58-4.11-4.58s-4.17,1.61-4.17,4.58v10.22h-4.68v-18.5h4.68v2.3a6.89,6.89,0,0,1,5.57-2.57c4.31,0,7.39,2.81,7.39,7.92v10.85h-4.68Z" transform="translate(-66.16 -188.52)"/><path class="cls-93" d="M214.37,254h-3.91v8.95h-4.68V239.63h8.59c5.61,0,8.41,3.17,8.41,7.21C222.78,250.39,220.38,254,214.37,254Zm-.21-3.77c2.64,0,3.81-1.3,3.81-3.38s-1.17-3.4-3.81-3.4h-3.7v6.78Z" transform="translate(-66.16 -188.52)"/><path class="cls-94" d="M235,263.24c-5.37,0-9.28-3.74-9.28-9.55s3.81-9.55,9.28-9.55,9.12,3.64,9.12,9.15a10.9,10.9,0,0,1-.13,1.8H230.47a4.34,4.34,0,0,0,4.44,4.28,3.8,3.8,0,0,0,3.71-2.24h5A8.59,8.59,0,0,1,235,263.24ZM230.5,252h8.79a4.12,4.12,0,0,0-4.41-4A4.3,4.3,0,0,0,230.5,252Z" transform="translate(-66.16 -188.52)"/><path class="cls-94" d="M255.66,244.14a7.62,7.62,0,0,1,6,2.87v-8.78h4.74v24.71h-4.74V260.2a7,7,0,0,1-6.08,3c-4.71,0-8.45-3.84-8.45-9.62S250.92,244.14,255.66,244.14Zm1.17,4.11c-2.5,0-4.87,1.87-4.87,5.37s2.37,5.52,4.87,5.52,4.91-1.94,4.91-5.45S259.4,248.25,256.83,248.25Z" transform="translate(-66.16 -188.52)"/><path class="cls-94" d="M289.34,262.94h-4.71V260.6a6.84,6.84,0,0,1-5.51,2.58c-4.31,0-7.42-2.81-7.42-7.88V244.44h4.68v10.19c0,3,1.64,4.57,4.11,4.57s4.14-1.6,4.14-4.57V244.44h4.71Z" transform="translate(-66.16 -188.52)"/><path class="cls-94" d="M294.79,238.23h4.68v24.71h-4.68Z" transform="translate(-66.16 -188.52)"/><path class="cls-94" d="M304.42,239.5a2.87,2.87,0,1,1,2.87,2.74A2.74,2.74,0,0,1,304.42,239.5Zm.49,4.94h4.68v18.5h-4.68Z" transform="translate(-66.16 -188.52)"/><path class="cls-93" d="M210.46,282.12v10.39h-4.68V269.19h4.68v10.46l8.48-10.46h5.64L215,280.75l9.88,11.76h-5.91Z" transform="translate(-66.16 -188.52)"/><path class="cls-94" d="M236.85,292.81c-5.37,0-9.28-3.74-9.28-9.56s3.8-9.55,9.28-9.55,9.12,3.64,9.12,9.15a12.34,12.34,0,0,1-.13,1.81H232.31a4.33,4.33,0,0,0,4.44,4.27,3.8,3.8,0,0,0,3.71-2.24h5A8.6,8.6,0,0,1,236.85,292.81Zm-4.51-11.29h8.79a4.12,4.12,0,0,0-4.41-4A4.3,4.3,0,0,0,232.34,281.52Z" transform="translate(-66.16 -188.52)"/><path class="cls-94" d="M276.1,282.29c0-2.94-1.63-4.48-4.1-4.48s-4.15,1.54-4.15,4.48v10.22h-4.67V282.29c0-2.94-1.64-4.48-4.11-4.48s-4.17,1.54-4.17,4.48v10.22h-4.68V274h4.68v2.24a6.69,6.69,0,0,1,5.44-2.5,7.07,7.07,0,0,1,6.51,3.54,7.32,7.32,0,0,1,6.35-3.54c4.44,0,7.58,2.8,7.58,7.91v10.86H276.1Z" transform="translate(-66.16 -188.52)"/><path class="cls-94" d="M293.32,273.7a7.33,7.33,0,0,1,6.11,2.94V274h4.71v18.51h-4.71V289.8a7.31,7.31,0,0,1-6.14,3c-4.68,0-8.42-3.85-8.42-9.62S288.61,273.7,293.32,273.7Zm1.2,4.11c-2.5,0-4.87,1.87-4.87,5.38s2.37,5.51,4.87,5.51,4.91-1.94,4.91-5.45S297.09,277.81,294.52,277.81Z" transform="translate(-66.16 -188.52)"/><path class="cls-94" d="M322.52,282.29c0-3-1.64-4.58-4.11-4.58s-4.17,1.6-4.17,4.58v10.22h-4.68V274h4.68v2.31a6.89,6.89,0,0,1,5.57-2.57c4.31,0,7.39,2.8,7.39,7.91v10.86h-4.68Z" transform="translate(-66.16 -188.52)"/><path class="cls-94" d="M350,292.51h-4.71v-2.34a6.83,6.83,0,0,1-5.51,2.57c-4.31,0-7.41-2.81-7.41-7.88V274H337v10.19c0,3,1.64,4.58,4.11,4.58s4.14-1.61,4.14-4.58V274H350Z" transform="translate(-66.16 -188.52)"/><path class="cls-94" d="M362.48,292.81c-4.64,0-7.88-2.71-8.08-6.15h4.71c.17,1.4,1.47,2.47,3.34,2.47s2.84-.83,2.84-1.9c0-3.31-10.45-1.2-10.45-8,0-3.08,2.73-5.55,7.31-5.55s7.18,2.44,7.45,6.11h-4.48c-.13-1.43-1.27-2.4-3.11-2.4s-2.63.7-2.63,1.77c0,3.37,10.25,1.27,10.38,8.05C369.76,290.4,367,292.81,362.48,292.81Z" transform="translate(-66.16 -188.52)"/><path class="cls-94" d="M373.94,269.06a2.88,2.88,0,1,1,2.88,2.74A2.75,2.75,0,0,1,373.94,269.06Zm.51,4.94h4.67v18.51h-4.67Z" transform="translate(-66.16 -188.52)"/><path class="cls-94" d="M391.82,273.7a7.33,7.33,0,0,1,6.11,2.94V274h4.71v18.51h-4.71V289.8a7.29,7.29,0,0,1-6.14,3c-4.68,0-8.42-3.85-8.42-9.62S387.11,273.7,391.82,273.7Zm1.2,4.11c-2.5,0-4.88,1.87-4.88,5.38s2.38,5.51,4.88,5.51,4.91-1.94,4.91-5.45S395.59,277.81,393,277.81Z" transform="translate(-66.16 -188.52)"/><path class="cls-94" d="M415.31,273.7a7.33,7.33,0,0,1,6.11,2.94V274h4.71v18.51h-4.71V289.8a7.31,7.31,0,0,1-6.15,3c-4.67,0-8.41-3.85-8.41-9.62S410.6,273.7,415.31,273.7Zm1.2,4.11c-2.51,0-4.88,1.87-4.88,5.38s2.37,5.51,4.88,5.51,4.91-1.94,4.91-5.45S419.08,277.81,416.51,277.81Z" transform="translate(-66.16 -188.52)"/><path class="cls-94" d="M444.51,282.29c0-3-1.64-4.58-4.11-4.58s-4.18,1.6-4.18,4.58v10.22h-4.67V274h4.67v2.31a6.93,6.93,0,0,1,5.58-2.57c4.31,0,7.38,2.8,7.38,7.91v10.86h-4.67Z" transform="translate(-66.16 -188.52)"/></svg>